<svg version="1.1" viewBox="0.0 0.0 416.75853018372703 351.84251968503935" fill="none" stroke="none" stroke-linecap="square" stroke-miterlimit="10" xmlns:xlink="http://www.w3.org/1999/xlink" xmlns="http://www.w3.org/2000/svg"><clipPath id="p.0"><path d="m0 0l416.75854 0l0 351.84253l-416.75854 0l0 -351.84253z" clip-rule="nonzero"/></clipPath><g clip-path="url(#p.0)"><path fill="#000000" fill-opacity="0.0" d="m0 0l416.75854 0l0 351.84253l-416.75854 0z" fill-rule="evenodd"/><path fill="#ffffff" d="m132.80052 1.343832l62.992126 0l0 20.031496l-62.992126 0z" fill-rule="evenodd"/><path stroke="#000000" stroke-width="2.0" stroke-linejoin="round" stroke-linecap="butt" d="m132.80052 1.343832l62.992126 0l0 20.031496l-62.992126 0z" fill-rule="evenodd"/><path fill="#ffffff" d="m132.80052 21.375328l62.992126 0l0 20.031498l-62.992126 0z" fill-rule="evenodd"/><path stroke="#000000" stroke-width="2.0" stroke-linejoin="round" stroke-linecap="butt" d="m132.80052 21.375328l62.992126 0l0 20.031498l-62.992126 0z" fill-rule="evenodd"/><path fill="#ffffff" d="m132.80052 41.406826l62.992126 0l0 20.031494l-62.992126 0z" fill-rule="evenodd"/><path stroke="#000000" stroke-width="2.0" stroke-linejoin="round" stroke-linecap="butt" d="m132.80052 41.406826l62.992126 0l0 20.031494l-62.992126 0z" fill-rule="evenodd"/><path fill="#ffffff" d="m132.80052 61.43832l62.992126 0l0 20.031498l-62.992126 0z" fill-rule="evenodd"/><path stroke="#000000" stroke-width="2.0" stroke-linejoin="round" stroke-linecap="butt" d="m132.80052 61.43832l62.992126 0l0 20.031498l-62.992126 0z" fill-rule="evenodd"/><path fill="#ffffff" d="m132.80052 81.46982l62.992126 0l0 20.031494l-62.992126 0z" fill-rule="evenodd"/><path stroke="#000000" stroke-width="2.0" stroke-linejoin="round" stroke-linecap="butt" d="m132.80052 81.46982l62.992126 0l0 20.031494l-62.992126 0z" fill-rule="evenodd"/><path fill="#ffffff" d="m132.80052 101.50131l62.992126 0l0 20.031494l-62.992126 0z" fill-rule="evenodd"/><path stroke="#000000" stroke-width="2.0" stroke-linejoin="round" stroke-linecap="butt" d="m132.80052 101.50131l62.992126 0l0 20.031494l-62.992126 0z" fill-rule="evenodd"/><path fill="#ffffff" d="m132.80052 121.53281l62.992126 0l0 20.031494l-62.992126 0z" fill-rule="evenodd"/><path stroke="#000000" stroke-width="2.0" stroke-linejoin="round" stroke-linecap="butt" d="m132.80052 121.53281l62.992126 0l0 20.031494l-62.992126 0z" fill-rule="evenodd"/><path fill="#ffffff" d="m132.80052 141.5643l62.992126 0l0 20.031494l-62.992126 0z" fill-rule="evenodd"/><path stroke="#000000" stroke-width="2.0" stroke-linejoin="round" stroke-linecap="butt" d="m132.80052 141.5643l62.992126 0l0 20.031494l-62.992126 0z" fill-rule="evenodd"/><path fill="#ffffff" d="m132.80052 161.5958l62.992126 0l0 20.03151l-62.992126 0z" fill-rule="evenodd"/><path stroke="#000000" stroke-width="2.0" stroke-linejoin="round" stroke-linecap="butt" d="m132.80052 161.5958l62.992126 0l0 20.03151l-62.992126 0z" fill-rule="evenodd"/><path fill="#ffffff" d="m132.80052 181.6273l62.992126 0l0 20.031494l-62.992126 0z" fill-rule="evenodd"/><path stroke="#000000" stroke-width="2.0" stroke-linejoin="round" stroke-linecap="butt" d="m132.80052 181.6273l62.992126 0l0 20.031494l-62.992126 0z" fill-rule="evenodd"/><path fill="#ffffff" d="m132.80052 201.6588l62.992126 0l0 20.031494l-62.992126 0z" fill-rule="evenodd"/><path stroke="#000000" stroke-width="2.0" stroke-linejoin="round" stroke-linecap="butt" d="m132.80052 201.6588l62.992126 0l0 20.031494l-62.992126 0z" fill-rule="evenodd"/><path fill="#ffffff" d="m132.80052 221.69029l62.992126 0l0 20.031494l-62.992126 0z" fill-rule="evenodd"/><path stroke="#000000" stroke-width="2.0" stroke-linejoin="round" stroke-linecap="butt" d="m132.80052 221.69029l62.992126 0l0 20.031494l-62.992126 0z" fill-rule="evenodd"/><path fill="#ffffff" d="m132.80052 241.72179l62.992126 0l0 20.03151l-62.992126 0z" fill-rule="evenodd"/><path stroke="#000000" stroke-width="2.0" stroke-linejoin="round" stroke-linecap="butt" d="m132.80052 241.72179l62.992126 0l0 20.03151l-62.992126 0z" fill-rule="evenodd"/><path fill="#ffffff" d="m132.80052 261.7533l62.992126 0l0 20.031494l-62.992126 0z" fill-rule="evenodd"/><path stroke="#000000" stroke-width="2.0" stroke-linejoin="round" stroke-linecap="butt" d="m132.80052 261.7533l62.992126 0l0 20.031494l-62.992126 0z" fill-rule="evenodd"/><path fill="#ffffff" d="m132.80052 281.7848l62.992126 0l0 20.031494l-62.992126 0z" fill-rule="evenodd"/><path stroke="#000000" stroke-width="2.0" stroke-linejoin="round" stroke-linecap="butt" d="m132.80052 281.7848l62.992126 0l0 20.031494l-62.992126 0z" fill-rule="evenodd"/><path fill="#ffffff" d="m132.80052 301.81628l62.992126 0l0 20.031494l-62.992126 0z" fill-rule="evenodd"/><path stroke="#000000" stroke-width="2.0" stroke-linejoin="round" stroke-linecap="butt" d="m132.80052 301.81628l62.992126 0l0 20.031494l-62.992126 0z" fill-rule="evenodd"/><path fill="#073763" d="m348.20734 316.17847l62.992126 0l0 5.6693115l-62.992126 0z" fill-rule="evenodd"/><path stroke="#000000" stroke-width="2.0" stroke-linejoin="round" stroke-linecap="butt" d="m348.20734 316.17847l62.992126 0l0 5.6693115l-62.992126 0z" fill-rule="evenodd"/><path fill="#073763" d="m348.20734 310.5092l62.992126 0l0 5.669281l-62.992126 0z" fill-rule="evenodd"/><path stroke="#000000" stroke-width="2.0" stroke-linejoin="round" stroke-linecap="butt" d="m348.20734 310.5092l62.992126 0l0 5.669281l-62.992126 0z" fill-rule="evenodd"/><path fill="#073763" d="m348.20734 305.40945l62.992126 0l0 5.669281l-62.992126 0z" fill-rule="evenodd"/><path stroke="#000000" stroke-width="2.0" stroke-linejoin="round" stroke-linecap="butt" d="m348.20734 305.40945l62.992126 0l0 5.669281l-62.992126 0z" fill-rule="evenodd"/><path fill="#073763" d="m348.20734 299.74014l62.992126 0l0 5.6693115l-62.992126 0z" fill-rule="evenodd"/><path stroke="#000000" stroke-width="2.0" stroke-linejoin="round" stroke-linecap="butt" d="m348.20734 299.74014l62.992126 0l0 5.6693115l-62.992126 0z" fill-rule="evenodd"/><path fill="#073763" d="m348.20734 294.07086l62.992126 0l0 5.669281l-62.992126 0z" fill-rule="evenodd"/><path stroke="#000000" stroke-width="2.0" stroke-linejoin="round" stroke-linecap="butt" d="m348.20734 294.07086l62.992126 0l0 5.669281l-62.992126 0z" fill-rule="evenodd"/><path fill="#073763" d="m348.20734 288.40158l62.992126 0l0 5.669281l-62.992126 0z" fill-rule="evenodd"/><path stroke="#000000" stroke-width="2.0" stroke-linejoin="round" stroke-linecap="butt" d="m348.20734 288.40158l62.992126 0l0 5.669281l-62.992126 0z" fill-rule="evenodd"/><path fill="#073763" d="m348.20734 283.30185l62.992126 0l0 5.669281l-62.992126 0z" fill-rule="evenodd"/><path stroke="#000000" stroke-width="2.0" stroke-linejoin="round" stroke-linecap="butt" d="m348.20734 283.30185l62.992126 0l0 5.669281l-62.992126 0z" fill-rule="evenodd"/><path fill="#073763" d="m348.20734 277.63254l62.992126 0l0 5.6693115l-62.992126 0z" fill-rule="evenodd"/><path stroke="#000000" stroke-width="2.0" stroke-linejoin="round" stroke-linecap="butt" d="m348.20734 277.63254l62.992126 0l0 5.6693115l-62.992126 0z" fill-rule="evenodd"/><path fill="#073763" d="m348.20734 272.5328l62.992126 0l0 5.669281l-62.992126 0z" fill-rule="evenodd"/><path stroke="#000000" stroke-width="2.0" stroke-linejoin="round" stroke-linecap="butt" d="m348.20734 272.5328l62.992126 0l0 5.669281l-62.992126 0z" fill-rule="evenodd"/><path fill="#073763" d="m348.20734 266.86353l62.992126 0l0 5.669281l-62.992126 0z" fill-rule="evenodd"/><path stroke="#000000" stroke-width="2.0" stroke-linejoin="round" stroke-linecap="butt" d="m348.20734 266.86353l62.992126 0l0 5.669281l-62.992126 0z" fill-rule="evenodd"/><path fill="#073763" d="m348.20734 261.7638l62.992126 0l0 5.669281l-62.992126 0z" fill-rule="evenodd"/><path stroke="#000000" stroke-width="2.0" stroke-linejoin="round" stroke-linecap="butt" d="m348.20734 261.7638l62.992126 0l0 5.669281l-62.992126 0z" fill-rule="evenodd"/><path fill="#073763" d="m348.20734 256.09448l62.992126 0l0 5.6693115l-62.992126 0z" fill-rule="evenodd"/><path stroke="#000000" stroke-width="2.0" stroke-linejoin="round" stroke-linecap="butt" d="m348.20734 256.09448l62.992126 0l0 5.6693115l-62.992126 0z" fill-rule="evenodd"/><path fill="#073763" d="m348.20734 250.4252l62.992126 0l0 5.669281l-62.992126 0z" fill-rule="evenodd"/><path stroke="#000000" stroke-width="2.0" stroke-linejoin="round" stroke-linecap="butt" d="m348.20734 250.4252l62.992126 0l0 5.669281l-62.992126 0z" fill-rule="evenodd"/><path fill="#073763" d="m348.20734 244.7559l62.992126 0l0 5.6692963l-62.992126 0z" fill-rule="evenodd"/><path stroke="#000000" stroke-width="2.0" stroke-linejoin="round" stroke-linecap="butt" d="m348.20734 244.7559l62.992126 0l0 5.6692963l-62.992126 0z" fill-rule="evenodd"/><path fill="#073763" d="m348.20734 239.65617l62.992126 0l0 5.669281l-62.992126 0z" fill-rule="evenodd"/><path stroke="#000000" stroke-width="2.0" stroke-linejoin="round" stroke-linecap="butt" d="m348.20734 239.65617l62.992126 0l0 5.669281l-62.992126 0z" fill-rule="evenodd"/><path fill="#073763" d="m348.20734 233.98688l62.992126 0l0 5.6692963l-62.992126 0z" fill-rule="evenodd"/><path stroke="#000000" stroke-width="2.0" stroke-linejoin="round" stroke-linecap="butt" d="m348.20734 233.98688l62.992126 0l0 5.6692963l-62.992126 0z" fill-rule="evenodd"/><path fill="#073763" d="m348.20734 228.88715l62.992126 0l0 5.669281l-62.992126 0z" fill-rule="evenodd"/><path stroke="#000000" stroke-width="2.0" stroke-linejoin="round" stroke-linecap="butt" d="m348.20734 228.88715l62.992126 0l0 5.669281l-62.992126 0z" fill-rule="evenodd"/><path fill="#073763" d="m348.20734 223.21785l62.992126 0l0 5.6692963l-62.992126 0z" fill-rule="evenodd"/><path stroke="#000000" stroke-width="2.0" stroke-linejoin="round" stroke-linecap="butt" d="m348.20734 223.21785l62.992126 0l0 5.6692963l-62.992126 0z" fill-rule="evenodd"/><path fill="#073763" d="m348.20734 218.1181l62.992126 0l0 5.6692963l-62.992126 0z" fill-rule="evenodd"/><path stroke="#000000" stroke-width="2.0" stroke-linejoin="round" stroke-linecap="butt" d="m348.20734 218.1181l62.992126 0l0 5.6692963l-62.992126 0z" fill-rule="evenodd"/><path fill="#073763" d="m348.20734 212.44882l62.992126 0l0 5.669281l-62.992126 0z" fill-rule="evenodd"/><path stroke="#000000" stroke-width="2.0" stroke-linejoin="round" stroke-linecap="butt" d="m348.20734 212.44882l62.992126 0l0 5.669281l-62.992126 0z" fill-rule="evenodd"/><path fill="#073763" d="m348.20734 206.77953l62.992126 0l0 5.6692963l-62.992126 0z" fill-rule="evenodd"/><path stroke="#000000" stroke-width="2.0" stroke-linejoin="round" stroke-linecap="butt" d="m348.20734 206.77953l62.992126 0l0 5.6692963l-62.992126 0z" fill-rule="evenodd"/><path fill="#073763" d="m348.20734 201.11023l62.992126 0l0 5.6692963l-62.992126 0z" fill-rule="evenodd"/><path stroke="#000000" stroke-width="2.0" stroke-linejoin="round" stroke-linecap="butt" d="m348.20734 201.11023l62.992126 0l0 5.6692963l-62.992126 0z" fill-rule="evenodd"/><path fill="#073763" d="m348.20734 196.0105l62.992126 0l0 5.6692963l-62.992126 0z" fill-rule="evenodd"/><path stroke="#000000" stroke-width="2.0" stroke-linejoin="round" stroke-linecap="butt" d="m348.20734 196.0105l62.992126 0l0 5.6692963l-62.992126 0z" fill-rule="evenodd"/><path fill="#073763" d="m348.20734 190.3412l62.992126 0l0 5.6692963l-62.992126 0z" fill-rule="evenodd"/><path stroke="#000000" stroke-width="2.0" stroke-linejoin="round" stroke-linecap="butt" d="m348.20734 190.3412l62.992126 0l0 5.6692963l-62.992126 0z" fill-rule="evenodd"/><path fill="#073763" d="m348.20734 185.24147l62.992126 0l0 5.6692963l-62.992126 0z" fill-rule="evenodd"/><path stroke="#000000" stroke-width="2.0" stroke-linejoin="round" stroke-linecap="butt" d="m348.20734 185.24147l62.992126 0l0 5.6692963l-62.992126 0z" fill-rule="evenodd"/><path fill="#073763" d="m348.20734 179.57217l62.992126 0l0 5.6692963l-62.992126 0z" fill-rule="evenodd"/><path stroke="#000000" stroke-width="2.0" stroke-linejoin="round" stroke-linecap="butt" d="m348.20734 179.57217l62.992126 0l0 5.6692963l-62.992126 0z" fill-rule="evenodd"/><path fill="#073763" d="m348.20734 174.47244l62.992126 0l0 5.6692963l-62.992126 0z" fill-rule="evenodd"/><path stroke="#000000" stroke-width="2.0" stroke-linejoin="round" stroke-linecap="butt" d="m348.20734 174.47244l62.992126 0l0 5.6692963l-62.992126 0z" fill-rule="evenodd"/><path fill="#073763" d="m348.20734 168.80315l62.992126 0l0 5.6692963l-62.992126 0z" fill-rule="evenodd"/><path stroke="#000000" stroke-width="2.0" stroke-linejoin="round" stroke-linecap="butt" d="m348.20734 168.80315l62.992126 0l0 5.6692963l-62.992126 0z" fill-rule="evenodd"/><path fill="#073763" d="m348.20734 163.13387l62.992126 0l0 5.669281l-62.992126 0z" fill-rule="evenodd"/><path stroke="#000000" stroke-width="2.0" stroke-linejoin="round" stroke-linecap="butt" d="m348.20734 163.13387l62.992126 0l0 5.669281l-62.992126 0z" fill-rule="evenodd"/><path fill="#073763" d="m348.20734 157.46457l62.992126 0l0 5.6692963l-62.992126 0z" fill-rule="evenodd"/><path stroke="#000000" stroke-width="2.0" stroke-linejoin="round" stroke-linecap="butt" d="m348.20734 157.46457l62.992126 0l0 5.6692963l-62.992126 0z" fill-rule="evenodd"/><path fill="#073763" d="m348.20734 152.36482l62.992126 0l0 5.6692963l-62.992126 0z" fill-rule="evenodd"/><path stroke="#000000" stroke-width="2.0" stroke-linejoin="round" stroke-linecap="butt" d="m348.20734 152.36482l62.992126 0l0 5.6692963l-62.992126 0z" fill-rule="evenodd"/><path fill="#073763" d="m348.20734 146.69554l62.992126 0l0 5.669281l-62.992126 0z" fill-rule="evenodd"/><path stroke="#000000" stroke-width="2.0" stroke-linejoin="round" stroke-linecap="butt" d="m348.20734 146.69554l62.992126 0l0 5.669281l-62.992126 0z" fill-rule="evenodd"/><path fill="#073763" d="m348.20734 141.59448l62.992126 0l0 5.6692963l-62.992126 0z" fill-rule="evenodd"/><path stroke="#000000" stroke-width="2.0" stroke-linejoin="round" stroke-linecap="butt" d="m348.20734 141.59448l62.992126 0l0 5.6692963l-62.992126 0z" fill-rule="evenodd"/><path fill="#073763" d="m348.20734 135.9252l62.992126 0l0 5.669281l-62.992126 0z" fill-rule="evenodd"/><path stroke="#000000" stroke-width="2.0" stroke-linejoin="round" stroke-linecap="butt" d="m348.20734 135.9252l62.992126 0l0 5.669281l-62.992126 0z" fill-rule="evenodd"/><path fill="#073763" d="m348.20734 130.82545l62.992126 0l0 5.6692963l-62.992126 0z" fill-rule="evenodd"/><path stroke="#000000" stroke-width="2.0" stroke-linejoin="round" stroke-linecap="butt" d="m348.20734 130.82545l62.992126 0l0 5.6692963l-62.992126 0z" fill-rule="evenodd"/><path fill="#073763" d="m348.20734 125.156166l62.992126 0l0 5.6692886l-62.992126 0z" fill-rule="evenodd"/><path stroke="#000000" stroke-width="2.0" stroke-linejoin="round" stroke-linecap="butt" d="m348.20734 125.156166l62.992126 0l0 5.6692886l-62.992126 0z" fill-rule="evenodd"/><path fill="#073763" d="m348.20734 119.48688l62.992126 0l0 5.6692886l-62.992126 0z" fill-rule="evenodd"/><path stroke="#000000" stroke-width="2.0" stroke-linejoin="round" stroke-linecap="butt" d="m348.20734 119.48688l62.992126 0l0 5.6692886l-62.992126 0z" fill-rule="evenodd"/><path fill="#073763" d="m348.20734 113.81759l62.992126 0l0 5.6692886l-62.992126 0z" fill-rule="evenodd"/><path stroke="#000000" stroke-width="2.0" stroke-linejoin="round" stroke-linecap="butt" d="m348.20734 113.81759l62.992126 0l0 5.6692886l-62.992126 0z" fill-rule="evenodd"/><path fill="#073763" d="m348.20734 108.71785l62.992126 0l0 5.6692886l-62.992126 0z" fill-rule="evenodd"/><path stroke="#000000" stroke-width="2.0" stroke-linejoin="round" stroke-linecap="butt" d="m348.20734 108.71785l62.992126 0l0 5.6692886l-62.992126 0z" fill-rule="evenodd"/><path fill="#073763" d="m348.20734 103.04855l62.992126 0l0 5.6692963l-62.992126 0z" fill-rule="evenodd"/><path stroke="#000000" stroke-width="2.0" stroke-linejoin="round" stroke-linecap="butt" d="m348.20734 103.04855l62.992126 0l0 5.6692963l-62.992126 0z" fill-rule="evenodd"/><path fill="#073763" d="m348.20734 97.94882l62.992126 0l0 5.6692886l-62.992126 0z" fill-rule="evenodd"/><path stroke="#000000" stroke-width="2.0" stroke-linejoin="round" stroke-linecap="butt" d="m348.20734 97.94882l62.992126 0l0 5.6692886l-62.992126 0z" fill-rule="evenodd"/><path fill="#073763" d="m348.20734 92.279526l62.992126 0l0 5.6692963l-62.992126 0z" fill-rule="evenodd"/><path stroke="#000000" stroke-width="2.0" stroke-linejoin="round" stroke-linecap="butt" d="m348.20734 92.279526l62.992126 0l0 5.6692963l-62.992126 0z" fill-rule="evenodd"/><path fill="#073763" d="m348.20734 87.17979l62.992126 0l0 5.6692963l-62.992126 0z" fill-rule="evenodd"/><path stroke="#000000" stroke-width="2.0" stroke-linejoin="round" stroke-linecap="butt" d="m348.20734 87.17979l62.992126 0l0 5.6692963l-62.992126 0z" fill-rule="evenodd"/><path fill="#073763" d="m348.20734 81.5105l62.992126 0l0 5.6692886l-62.992126 0z" fill-rule="evenodd"/><path stroke="#000000" stroke-width="2.0" stroke-linejoin="round" stroke-linecap="butt" d="m348.20734 81.5105l62.992126 0l0 5.6692886l-62.992126 0z" fill-rule="evenodd"/><path fill="#073763" d="m348.20734 75.84121l62.992126 0l0 5.6692886l-62.992126 0z" fill-rule="evenodd"/><path stroke="#000000" stroke-width="2.0" stroke-linejoin="round" stroke-linecap="butt" d="m348.20734 75.84121l62.992126 0l0 5.6692886l-62.992126 0z" fill-rule="evenodd"/><path fill="#073763" d="m348.20734 70.17191l62.992126 0l0 5.6692963l-62.992126 0z" fill-rule="evenodd"/><path stroke="#000000" stroke-width="2.0" stroke-linejoin="round" stroke-linecap="butt" d="m348.20734 70.17191l62.992126 0l0 5.6692963l-62.992126 0z" fill-rule="evenodd"/><path fill="#073763" d="m348.20734 65.07218l62.992126 0l0 5.6692886l-62.992126 0z" fill-rule="evenodd"/><path stroke="#000000" stroke-width="2.0" stroke-linejoin="round" stroke-linecap="butt" d="m348.20734 65.07218l62.992126 0l0 5.6692886l-62.992126 0z" fill-rule="evenodd"/><path fill="#073763" d="m348.20734 59.402885l62.992126 0l0 5.6692963l-62.992126 0z" fill-rule="evenodd"/><path stroke="#000000" stroke-width="2.0" stroke-linejoin="round" stroke-linecap="butt" d="m348.20734 59.402885l62.992126 0l0 5.6692963l-62.992126 0z" fill-rule="evenodd"/><path fill="#073763" d="m348.20734 54.30315l62.992126 0l0 5.6692924l-62.992126 0z" fill-rule="evenodd"/><path stroke="#000000" stroke-width="2.0" stroke-linejoin="round" stroke-linecap="butt" d="m348.20734 54.30315l62.992126 0l0 5.6692924l-62.992126 0z" fill-rule="evenodd"/><path fill="#073763" d="m348.20734 48.633858l62.992126 0l0 5.6692924l-62.992126 0z" fill-rule="evenodd"/><path stroke="#000000" stroke-width="2.0" stroke-linejoin="round" stroke-linecap="butt" d="m348.20734 48.633858l62.992126 0l0 5.6692924l-62.992126 0z" fill-rule="evenodd"/><path fill="#073763" d="m348.20734 43.534122l62.992126 0l0 5.6692886l-62.992126 0z" fill-rule="evenodd"/><path stroke="#000000" stroke-width="2.0" stroke-linejoin="round" stroke-linecap="butt" d="m348.20734 43.534122l62.992126 0l0 5.6692886l-62.992126 0z" fill-rule="evenodd"/><path fill="#073763" d="m348.20734 37.86483l62.992126 0l0 5.6692924l-62.992126 0z" fill-rule="evenodd"/><path stroke="#000000" stroke-width="2.0" stroke-linejoin="round" stroke-linecap="butt" d="m348.20734 37.86483l62.992126 0l0 5.6692924l-62.992126 0z" fill-rule="evenodd"/><path fill="#073763" d="m348.20734 32.195538l62.992126 0l0 5.6692924l-62.992126 0z" fill-rule="evenodd"/><path stroke="#000000" stroke-width="2.0" stroke-linejoin="round" stroke-linecap="butt" d="m348.20734 32.195538l62.992126 0l0 5.6692924l-62.992126 0z" fill-rule="evenodd"/><path fill="#073763" d="m348.20734 26.526247l62.992126 0l0 5.6692905l-62.992126 0z" fill-rule="evenodd"/><path stroke="#000000" stroke-width="2.0" stroke-linejoin="round" stroke-linecap="butt" d="m348.20734 26.526247l62.992126 0l0 5.6692905l-62.992126 0z" fill-rule="evenodd"/><path fill="#073763" d="m348.20734 21.42651l62.992126 0l0 5.6692905l-62.992126 0z" fill-rule="evenodd"/><path stroke="#000000" stroke-width="2.0" stroke-linejoin="round" stroke-linecap="butt" d="m348.20734 21.42651l62.992126 0l0 5.6692905l-62.992126 0z" fill-rule="evenodd"/><path fill="#000000" fill-opacity="0.0" d="m124.0 321.27823l287.2126 0l0 30.299194l-287.2126 0z" fill-rule="evenodd"/><path fill="#000000" d="m138.61906 347.1982l0.03125 -3.3125l0 -3.734375q0 -2.625 -0.125 -4.328125q0.3125 -0.046875 0.765625 -0.046875q0.90625 0 0.90625 0.703125q0 0.109375 -0.03125 0.75q-0.109375 1.9375 -0.109375 3.4375l0 3.75q0 2.515625 0.34375 3.6875q-0.328125 0.15625 -0.875 0.15625q-0.53125 0 -0.71875 -0.234375q-0.1875 -0.25 -0.1875 -0.828125zm4.5917816 -6.671875q-0.0625 0 -1.734375 0.140625q-0.0625 -0.171875 -0.0625 -0.53125q0 -0.375 0.28125 -0.484375q0.28125 -0.125 0.953125 -0.125l0.515625 0q-0.03125 -1.25 -0.109375 -2.09375q0.28125 -0.0625 0.609375 -0.0625q0.90625 0 0.90625 0.71875q0 0.265625 -0.078125 1.453125q2.375 0 3.140625 -0.09375q0.0625 0.15625 0.0625 0.484375q0 0.3125 -0.203125 0.453125q-0.1875 0.125 -0.71875 0.140625q-0.53125 0.015625 -2.3125 0.015625q-0.046875 2.015625 -0.046875 3.9375q0 1.90625 0.359375 2.421875q0.375 0.5 1.1875 0.5q0.8125 0 1.359375 -0.5625q0.34375 0.359375 0.34375 0.71875q0 0.34375 -0.484375 0.59375q-0.484375 0.234375 -1.171875 0.234375q-1.546875 0 -2.203125 -0.890625q-0.640625 -0.90625 -0.640625 -2.671875q0.046875 -3.375 0.046875 -4.296875zm9.770126 -1.1875q1.3125 0 2.109375 0.734375q0.8125 0.734375 0.8125 1.59375q0 0.859375 -0.265625 1.34375q-0.25 0.484375 -0.671875 0.765625q-0.421875 0.28125 -1.203125 0.421875q-1.1875 0.234375 -3.578125 0.234375q0.140625 1.34375 0.796875 2.125q0.671875 0.78125 1.96875 0.78125q1.3125 0 1.859375 -0.96875q0.75 0.296875 0.75 0.828125q0 0.515625 -0.859375 0.859375q-0.84375 0.328125 -1.890625 0.328125q-1.75 0 -2.875 -1.109375q-1.109375 -1.109375 -1.109375 -3.34375q0 -2.234375 1.234375 -3.40625q1.25 -1.1875 2.921875 -1.1875zm-0.078125 1.03125q-1.109375 0 -1.90625 0.765625q-0.796875 0.75 -0.828125 2.359375q2.65625 0 3.546875 -0.390625q0.359375 -0.171875 0.625 -0.484375q0.28125 -0.3125 0.28125 -0.84375q0 -0.53125 -0.5 -0.96875q-0.484375 -0.4375 -1.21875 -0.4375zm15.502808 6.9375l0.109375 -4.84375q0 -1.0625 -0.4375 -1.5625q-0.4375 -0.515625 -1.140625 -0.515625q-1.078125 0 -2.3125 0.984375q0.03125 2.53125 0.03125 4.046875q0 1.5 0.109375 2.765625q-0.296875 0.046875 -0.625 0.046875q-0.84375 0 -0.84375 -0.703125q0 -0.078125 0.015625 -0.75q0.078125 -1.59375 0.078125 -4.3125q0 -2.078125 -1.640625 -2.078125q-1.0625 0 -2.296875 1.015625q0.046875 2.546875 0.046875 4.03125q0 1.484375 0.109375 2.75q-0.296875 0.046875 -0.640625 0.046875q-0.84375 0 -0.84375 -0.703125q0 -0.078125 0.046875 -1.375q0.046875 -1.296875 0.046875 -2.578125q0 -3.0625 -0.34375 -3.953125q0.375 -0.15625 0.671875 -0.15625q0.859375 0 0.859375 0.9375q0.578125 -0.46875 1.375 -0.765625q0.796875 -0.296875 1.546875 -0.296875q1.53125 0 2.078125 1.203125q0.5 -0.5 1.40625 -0.84375q0.90625 -0.359375 1.796875 -0.359375q0.90625 0 1.546875 0.625q0.640625 0.625 0.640625 2.0l-0.0625 3.328125q0 1.71875 0.3125 2.8125q-0.375 0.15625 -0.796875 0.15625q-0.40625 0 -0.625 -0.21875q-0.21875 -0.21875 -0.21875 -0.734375zm11.634094 -0.171875l0.03125 -5.546875q0 -2.625 -0.0625 -4.703125q-2.015625 0.21875 -2.328125 0.265625q-0.046875 -0.21875 -0.046875 -0.40625q0 -0.703125 0.71875 -0.796875q2.0 -0.3125 2.328125 -0.3125q0.8125 0 0.8125 0.71875q0 0.140625 -0.046875 1.078125q-0.109375 2.796875 -0.109375 4.96875l0 1.15625q0 2.4375 0.125 3.640625q1.296875 0 1.953125 -0.078125q0.0625 0.21875 0.0625 0.40625q0 0.703125 -0.71875 0.703125l-2.984375 -0.03125q-1.421875 0 -2.0 0.015625q-0.09375 -0.28125 -0.09375 -0.4375q0 -0.640625 1.078125 -0.640625l1.28125 0z" fill-rule="nonzero"/><path fill="#000000" d="m268.79187 348.3857q-0.578125 0 -0.96875 -0.390625q-0.390625 -0.40625 -0.390625 -1.03125q0 -0.59375 0.390625 -1.015625q0.40625 -0.421875 0.96875 -0.421875q0.5625 0 0.953125 0.421875q0.390625 0.421875 0.390625 1.015625q0 0.625 -0.390625 1.03125q-0.390625 0.390625 -0.953125 0.390625zm5.65625 0q-0.578125 0 -0.96875 -0.390625q-0.390625 -0.40625 -0.390625 -1.03125q0 -0.59375 0.390625 -1.015625q0.40625 -0.421875 0.96875 -0.421875q0.5625 0 0.953125 0.421875q0.390625 0.421875 0.390625 1.015625q0 0.625 -0.390625 1.03125q-0.390625 0.390625 -0.953125 0.390625zm-11.328125 0q-0.578125 0 -0.96875 -0.390625q-0.390625 -0.40625 -0.390625 -1.03125q0 -0.59375 0.390625 -1.015625q0.40625 -0.421875 0.96875 -0.421875q0.5625 0 0.953125 0.421875q0.390625 0.421875 0.390625 1.015625q0 0.625 -0.390625 1.03125q-0.390625 0.390625 -0.953125 0.390625z" fill-rule="nonzero"/><path fill="#000000" d="m354.40576 347.1982l0.03125 -3.3125l0 -3.734375q0 -2.625 -0.125 -4.328125q0.3125 -0.046875 0.765625 -0.046875q0.90625 0 0.90625 0.703125q0 0.109375 -0.03125 0.75q-0.109375 1.9375 -0.109375 3.4375l0 3.75q0 2.515625 0.34375 3.6875q-0.328125 0.15625 -0.875 0.15625q-0.53125 0 -0.71875 -0.234375q-0.1875 -0.25 -0.1875 -0.828125zm4.591797 -6.671875q-0.0625 0 -1.734375 0.140625q-0.0625 -0.171875 -0.0625 -0.53125q0 -0.375 0.28125 -0.484375q0.28125 -0.125 0.953125 -0.125l0.515625 0q-0.03125 -1.25 -0.109375 -2.09375q0.28125 -0.0625 0.609375 -0.0625q0.90625 0 0.90625 0.71875q0 0.265625 -0.078125 1.453125q2.375 0 3.140625 -0.09375q0.0625 0.15625 0.0625 0.484375q0 0.3125 -0.203125 0.453125q-0.1875 0.125 -0.71875 0.140625q-0.53125 0.015625 -2.3125 0.015625q-0.046875 2.015625 -0.046875 3.9375q0 1.90625 0.359375 2.421875q0.375 0.5 1.1875 0.5q0.8125 0 1.359375 -0.5625q0.34375 0.359375 0.34375 0.71875q0 0.34375 -0.484375 0.59375q-0.484375 0.234375 -1.171875 0.234375q-1.546875 0 -2.203125 -0.890625q-0.640625 -0.90625 -0.640625 -2.671875q0.046875 -3.375 0.046875 -4.296875zm9.770142 -1.1875q1.3125 0 2.109375 0.734375q0.8125 0.734375 0.8125 1.59375q0 0.859375 -0.265625 1.34375q-0.25 0.484375 -0.671875 0.765625q-0.421875 0.28125 -1.203125 0.421875q-1.1875 0.234375 -3.578125 0.234375q0.140625 1.34375 0.796875 2.125q0.671875 0.78125 1.96875 0.78125q1.3125 0 1.859375 -0.96875q0.75 0.296875 0.75 0.828125q0 0.515625 -0.859375 0.859375q-0.84375 0.328125 -1.890625 0.328125q-1.75 0 -2.875 -1.109375q-1.109375 -1.109375 -1.109375 -3.34375q0 -2.234375 1.234375 -3.40625q1.25 -1.1875 2.921875 -1.1875zm-0.078125 1.03125q-1.109375 0 -1.90625 0.765625q-0.796875 0.75 -0.828125 2.359375q2.65625 0 3.546875 -0.390625q0.359375 -0.171875 0.625 -0.484375q0.28125 -0.3125 0.28125 -0.84375q0 -0.53125 -0.5 -0.96875q-0.484375 -0.4375 -1.21875 -0.4375zm15.502808 6.9375l0.109375 -4.84375q0 -1.0625 -0.4375 -1.5625q-0.4375 -0.515625 -1.140625 -0.515625q-1.078125 0 -2.3125 0.984375q0.03125 2.53125 0.03125 4.046875q0 1.5 0.109375 2.765625q-0.296875 0.046875 -0.625 0.046875q-0.84375 0 -0.84375 -0.703125q0 -0.078125 0.015625 -0.75q0.078125 -1.59375 0.078125 -4.3125q0 -2.078125 -1.640625 -2.078125q-1.0625 0 -2.296875 1.015625q0.046875 2.546875 0.046875 4.03125q0 1.484375 0.109375 2.75q-0.296875 0.046875 -0.640625 0.046875q-0.84375 0 -0.84375 -0.703125q0 -0.078125 0.046875 -1.375q0.046875 -1.296875 0.046875 -2.578125q0 -3.0625 -0.34375 -3.953125q0.375 -0.15625 0.671875 -0.15625q0.859375 0 0.859375 0.9375q0.578125 -0.46875 1.375 -0.765625q0.796875 -0.296875 1.546875 -0.296875q1.53125 0 2.078125 1.203125q0.5 -0.5 1.40625 -0.84375q0.90625 -0.359375 1.796875 -0.359375q0.90625 0 1.546875 0.625q0.640625 0.625 0.640625 2.0l-0.0625 3.328125q0 1.71875 0.3125 2.8125q-0.375 0.15625 -0.796875 0.15625q-0.40625 0 -0.625 -0.21875q-0.21875 -0.21875 -0.21875 -0.734375zm13.977844 0l0.109375 -4.84375q0 -1.03125 -0.515625 -1.546875q-0.515625 -0.53125 -1.3125 -0.53125q-1.265625 0 -2.5 1.015625q0.046875 2.546875 0.046875 4.03125q0 1.484375 0.109375 2.75q-0.296875 0.046875 -0.640625 0.046875q-0.84375 0 -0.84375 -0.703125q0 -0.078125 0.046875 -1.375q0.046875 -1.296875 0.046875 -2.578125q0 -3.0625 -0.34375 -3.953125q0.375 -0.15625 0.671875 -0.15625q0.859375 0 0.859375 0.9375q0.546875 -0.4375 1.421875 -0.75q0.890625 -0.3125 1.859375 -0.3125q0.96875 0 1.65625 0.625q0.703125 0.625 0.703125 2.0l-0.046875 3.328125q0 1.71875 0.3125 2.8125q-0.375 0.15625 -0.796875 0.15625q-0.421875 0 -0.640625 -0.21875q-0.203125 -0.21875 -0.203125 -0.734375z" fill-rule="nonzero"/><path fill="#000000" fill-opacity="0.0" d="m109.00787 321.84778c-10.219444 0 -18.503937 -1.3807068 -18.503937 -3.0838623l0 -154.08424c0 -1.7031708 -8.2844925 -3.0838776 -18.503937 -3.0838776l0 0c10.219444 0 18.503937 -1.3806915 18.503937 -3.0838623l0 -154.08423l0 0c0 -1.7031722 8.2844925 -3.0838661 18.503937 -3.0838661z" fill-rule="evenodd"/><path fill="#000000" fill-opacity="0.0" d="m109.00787 321.84778c-10.219444 0 -18.503937 -1.3807068 -18.503937 -3.0838623l0 -154.08424c0 -1.7031708 -8.2844925 -3.0838776 -18.503937 -3.0838776l0 0c10.219444 0 18.503937 -1.3806915 18.503937 -3.0838623l0 -154.08423l0 0c0 -1.7031722 8.2844925 -3.0838661 18.503937 -3.0838661" fill-rule="evenodd"/><path stroke="#000000" stroke-width="2.0" stroke-linejoin="round" stroke-linecap="butt" d="m109.00787 321.84778c-10.219444 0 -18.503937 -1.3807068 -18.503937 -3.0838623l0 -154.08424c0 -1.7031708 -8.2844925 -3.0838776 -18.503937 -3.0838776l0 0c10.219444 0 18.503937 -1.3806915 18.503937 -3.0838623l0 -154.08423l0 0c0 -1.7031722 8.2844925 -3.0838661 18.503937 -3.0838661" fill-rule="evenodd"/><path fill="#000000" fill-opacity="0.0" d="m-6.047244 139.88977l86.04724 0l0 40.818893l-86.04724 0z" fill-rule="evenodd"/><path fill="#000000" d="m5.546506 158.93477q1.359375 -0.984375 2.84375 -0.984375q1.5 0 2.40625 1.0625q0.90625 1.046875 0.90625 3.125q0 2.0625 -1.015625 3.46875q-1.0 1.390625 -2.984375 1.390625q-1.96875 0 -3.46875 -1.265625q0.140625 -1.125 0.140625 -3.390625q0 -2.28125 -0.09375 -5.453125q-0.09375 -3.171875 -0.203125 -3.890625q0.21875 -0.046875 0.671875 -0.046875q0.828125 0 0.828125 0.703125q0 0.25 -0.015625 2.46875q-0.015625 2.21875 -0.015625 2.8125zm0.015625 1.046875l0.015625 2.765625q0 1.484375 -0.046875 2.234375q1.09375 0.96875 2.375 0.96875q1.28125 0 1.875 -1.0625q0.609375 -1.078125 0.609375 -2.65625q0 -1.578125 -0.671875 -2.40625q-0.671875 -0.828125 -1.671875 -0.828125q-1.34375 0 -2.484375 0.984375zm27.106125 5.9375l0.109375 -4.84375q0 -1.0625 -0.4375 -1.5625q-0.4375 -0.515625 -1.140625 -0.515625q-1.078125 0 -2.3125 0.984375q0.03125 2.53125 0.03125 4.046875q0 1.5 0.109375 2.765625q-0.296875 0.046875 -0.625 0.046875q-0.84375 0 -0.84375 -0.703125q0 -0.078125 0.015625 -0.75q0.078125 -1.59375 0.078125 -4.3125q0 -2.078125 -1.640625 -2.078125q-1.0625 0 -2.296875 1.015625q0.046875 2.546875 0.046875 4.03125q0 1.484375 0.109375 2.75q-0.296875 0.046875 -0.640625 0.046875q-0.84375 0 -0.84375 -0.703125q0 -0.078125 0.046875 -1.375q0.046875 -1.296875 0.046875 -2.578125q0 -3.0625 -0.34375 -3.953125q0.375 -0.15625 0.671875 -0.15625q0.859375 0 0.859375 0.9375q0.578125 -0.46875 1.375 -0.765625q0.796875 -0.296875 1.546875 -0.296875q1.53125 0 2.078125 1.203125q0.5 -0.5 1.40625 -0.84375q0.90625 -0.359375 1.796875 -0.359375q0.90625 0 1.546875 0.625q0.640625 0.625 0.640625 2.0l-0.0625 3.328125q0 1.71875 0.3125 2.8125q-0.375 0.15625 -0.796875 0.15625q-0.40625 0 -0.625 -0.21875q-0.21875 -0.21875 -0.21875 -0.734375zm10.07753 -4.9375l-0.03125 2.53125q0 2.140625 0.34375 3.203125q-0.296875 0.15625 -0.71875 0.15625q-0.40625 0 -0.578125 -0.1875q-0.171875 -0.203125 -0.234375 -0.640625q-1.15625 0.953125 -2.375 0.953125q-2.875 0 -2.875 -2.625q0 -0.953125 0.4375 -1.40625q0.453125 -0.453125 1.234375 -0.671875q1.40625 -0.375 3.546875 -0.5q0 -1.59375 -0.390625 -2.1875q-0.390625 -0.609375 -1.65625 -0.609375q-0.53125 0 -1.09375 0.34375q-0.546875 0.328125 -0.828125 0.953125q-0.859375 -0.15625 -0.859375 -0.734375q0 -0.734375 0.890625 -1.171875q0.890625 -0.4375 2.296875 -0.4375q1.40625 0 2.140625 0.671875q0.75 0.65625 0.75 2.359375zm-1.265625 1.765625q-0.546875 0.046875 -0.8125 0.09375q-0.265625 0.03125 -0.734375 0.09375q-0.453125 0.046875 -0.6875 0.109375q-0.21875 0.046875 -0.546875 0.140625q-0.3125 0.09375 -0.484375 0.21875q-0.15625 0.109375 -0.3125 0.234375q-0.328125 0.265625 -0.328125 0.734375q0 0.828125 0.484375 1.234375q0.484375 0.40625 1.234375 0.40625q1.265625 0 2.140625 -0.84375q-0.015625 -0.265625 -0.015625 -0.953125q0 -0.6875 0.0625 -1.46875zm9.531509 3.171875l0.109375 -4.84375q0 -1.03125 -0.515625 -1.546875q-0.515625 -0.53125 -1.3125 -0.53125q-1.265625 0 -2.5 1.015625q0.046875 2.546875 0.046875 4.03125q0 1.484375 0.109375 2.75q-0.296875 0.046875 -0.640625 0.046875q-0.84375 0 -0.84375 -0.703125q0 -0.078125 0.046875 -1.375q0.046875 -1.296875 0.046875 -2.578125q0 -3.0625 -0.34375 -3.953125q0.375 -0.15625 0.671875 -0.15625q0.859375 0 0.859375 0.9375q0.546875 -0.4375 1.421875 -0.75q0.890625 -0.3125 1.859375 -0.3125q0.96875 0 1.65625 0.625q0.703125 0.625 0.703125 2.0l-0.046875 3.328125q0 1.71875 0.3125 2.8125q-0.375 0.15625 -0.796875 0.15625q-0.421875 0 -0.640625 -0.21875q-0.203125 -0.21875 -0.203125 -0.734375zm9.776352 -7.96875q0.65625 0 0.65625 0.8125q0 0.8125 -0.671875 2.90625q-0.65625 2.09375 -1.578125 4.046875q-1.640625 3.484375 -3.09375 5.296875q-0.375 0.484375 -0.71875 0.484375q-0.53125 0 -1.03125 -0.75q0.5625 -0.359375 1.484375 -1.453125q0.9375 -1.078125 1.625 -2.1875q-0.640625 -2.15625 -1.765625 -4.921875q-1.125 -2.78125 -1.921875 -3.546875q0.65625 -0.59375 1.078125 -0.59375q0.421875 0 0.71875 0.59375q0.4375 0.890625 1.3125 3.125q0.890625 2.234375 1.3125 3.703125q0.796875 -1.734375 1.40625 -3.734375q0.609375 -2.0 0.609375 -3.15625q0 -0.09375 -0.03125 -0.53125q0.265625 -0.09375 0.609375 -0.09375z" fill-rule="nonzero"/><path fill="#000000" fill-opacity="0.0" d="m0 150.8189l37.007874 0l0 45.196854l-37.007874 0z" fill-rule="evenodd"/><path fill="#000000" d="m15.331085 171.85327l0.03125 -3.953125q0 -1.875 -0.046875 -3.359375q-1.4375 0.140625 -1.65625 0.1875q-0.046875 -0.15625 -0.046875 -0.296875q0 -0.5 0.515625 -0.5625q1.421875 -0.21875 1.671875 -0.21875q0.578125 0 0.578125 0.5q0 0.109375 -0.03125 0.78125q-0.078125 2.0 -0.078125 3.546875l0 0.828125q0 1.734375 0.09375 2.59375q0.921875 0 1.375 -0.046875q0.0625 0.15625 0.0625 0.28125q0 0.515625 -0.515625 0.515625l-2.140625 -0.03125q-1.015625 0 -1.421875 0.015625q-0.0625 -0.203125 -0.0625 -0.328125q0 -0.453125 0.765625 -0.453125l0.90625 0z" fill-rule="nonzero"/><path fill="#000000" fill-opacity="0.0" d="m133.00787 239.72179c-4.418274 0 -8.0 -0.5969391 -8.0 -1.3332825l0 -5.333435c0 -0.73635864 -3.5817184 -1.3332825 -8.0 -1.3332825l0 0c4.4182816 0 8.0 -0.5969391 8.0 -1.3332825l0 -5.333435l0 0c0 -0.73635864 3.581726 -1.3332825 8.0 -1.3332825z" fill-rule="evenodd"/><path fill="#000000" fill-opacity="0.0" d="m133.00787 239.72179c-4.418274 0 -8.0 -0.5969391 -8.0 -1.3332825l0 -5.333435c0 -0.73635864 -3.5817184 -1.3332825 -8.0 -1.3332825l0 0c4.4182816 0 8.0 -0.5969391 8.0 -1.3332825l0 -5.333435l0 0c0 -0.73635864 3.581726 -1.3332825 8.0 -1.3332825" fill-rule="evenodd"/><path stroke="#000000" stroke-width="2.0" stroke-linejoin="round" stroke-linecap="butt" d="m133.00787 239.72179c-4.418274 0 -8.0 -0.5969391 -8.0 -1.3332825l0 -5.333435c0 -0.73635864 -3.5817184 -1.3332825 -8.0 -1.3332825l0 0c4.4182816 0 8.0 -0.5969391 8.0 -1.3332825l0 -5.333435l0 0c0 -0.73635864 3.581726 -1.3332825 8.0 -1.3332825" fill-rule="evenodd"/><path fill="#000000" fill-opacity="0.0" d="m90.98425 206.19685l86.04724 0l0 40.818893l-86.04724 0z" fill-rule="evenodd"/><path fill="#000000" d="m105.7655 226.50748q-0.203125 -0.53125 -0.84375 -0.859375q-0.625 -0.34375 -1.296875 -0.34375q-0.65625 0 -1.125 0.34375q-0.46875 0.34375 -0.46875 0.9375q0 0.59375 0.5 0.921875q0.5 0.3125 1.203125 0.484375q0.703125 0.15625 1.40625 0.375q0.71875 0.21875 1.203125 0.78125q0.5 0.546875 0.5 1.453125q0 1.328125 -0.953125 2.015625q-0.9375 0.6875 -2.171875 0.6875q-1.21875 0 -2.109375 -0.421875q-0.875 -0.4375 -0.875 -1.078125q0 -0.53125 0.828125 -0.78125q0.21875 0.59375 0.890625 0.921875q0.6875 0.3125 1.484375 0.3125q0.796875 0 1.296875 -0.34375q0.5 -0.359375 0.5 -1.015625q0 -0.65625 -0.5 -0.953125q-0.5 -0.296875 -1.203125 -0.453125q-0.703125 -0.15625 -1.421875 -0.375q-0.703125 -0.21875 -1.203125 -0.8125q-0.484375 -0.59375 -0.484375 -1.625q0 -1.046875 0.953125 -1.734375q0.96875 -0.6875 2.0 -0.6875q1.046875 0 1.890625 0.390625q0.84375 0.390625 0.84375 1.03125q0 0.625 -0.84375 0.828125z" fill-rule="nonzero"/><path fill="#000000" fill-opacity="0.0" d="m97.031494 217.12599l37.007874 0l0 45.196854l-37.007874 0z" fill-rule="evenodd"/><path fill="#000000" d="m109.29712 238.16035l0.03125 -3.953125q0 -1.875 -0.046875 -3.359375q-1.4375 0.140625 -1.65625 0.1875q-0.046875 -0.15625 -0.046875 -0.296875q0 -0.5 0.515625 -0.5625q1.421875 -0.21875 1.671875 -0.21875q0.578125 0 0.578125 0.5q0 0.109375 -0.03125 0.78125q-0.078125 2.0 -0.078125 3.546875l0 0.828125q0 1.734375 0.09375 2.59375q0.921875 0 1.375 -0.046875q0.0625 0.15625 0.0625 0.28125q0 0.515625 -0.515625 0.515625l-2.140625 -0.03125q-1.015625 0 -1.421875 0.015625q-0.0625 -0.203125 -0.0625 -0.328125q0 -0.453125 0.765625 -0.453125l0.90625 0z" fill-rule="nonzero"/><path fill="#38761d" d="m240.50394 310.3176l62.992126 0l0 10.960632l-62.992126 0z" fill-rule="evenodd"/><path stroke="#000000" stroke-width="2.0" stroke-linejoin="round" stroke-linecap="butt" d="m240.50394 310.3176l62.992126 0l0 10.960632l-62.992126 0z" fill-rule="evenodd"/><path fill="#38761d" d="m240.50394 299.35696l62.992126 0l0 10.960632l-62.992126 0z" fill-rule="evenodd"/><path stroke="#000000" stroke-width="2.0" stroke-linejoin="round" stroke-linecap="butt" d="m240.50394 299.35696l62.992126 0l0 10.960632l-62.992126 0z" fill-rule="evenodd"/><path fill="#38761d" d="m240.50394 288.39633l62.992126 0l0 10.960632l-62.992126 0z" fill-rule="evenodd"/><path stroke="#000000" stroke-width="2.0" stroke-linejoin="round" stroke-linecap="butt" d="m240.50394 288.39633l62.992126 0l0 10.960632l-62.992126 0z" fill-rule="evenodd"/><path fill="#38761d" d="m240.50394 277.4357l62.992126 0l0 10.960632l-62.992126 0z" fill-rule="evenodd"/><path stroke="#000000" stroke-width="2.0" stroke-linejoin="round" stroke-linecap="butt" d="m240.50394 277.4357l62.992126 0l0 10.960632l-62.992126 0z" fill-rule="evenodd"/><path fill="#38761d" d="m240.50394 266.47507l62.992126 0l0 10.960632l-62.992126 0z" fill-rule="evenodd"/><path stroke="#000000" stroke-width="2.0" stroke-linejoin="round" stroke-linecap="butt" d="m240.50394 266.47507l62.992126 0l0 10.960632l-62.992126 0z" fill-rule="evenodd"/><path fill="#38761d" d="m240.50394 255.51443l62.992126 0l0 10.960632l-62.992126 0z" fill-rule="evenodd"/><path stroke="#000000" stroke-width="2.0" stroke-linejoin="round" stroke-linecap="butt" d="m240.50394 255.51443l62.992126 0l0 10.960632l-62.992126 0z" fill-rule="evenodd"/><path fill="#38761d" d="m240.50394 244.5538l62.992126 0l0 10.960632l-62.992126 0z" fill-rule="evenodd"/><path stroke="#000000" stroke-width="2.0" stroke-linejoin="round" stroke-linecap="butt" d="m240.50394 244.5538l62.992126 0l0 10.960632l-62.992126 0z" fill-rule="evenodd"/><path fill="#38761d" d="m240.50394 233.59317l62.992126 0l0 10.960632l-62.992126 0z" fill-rule="evenodd"/><path stroke="#000000" stroke-width="2.0" stroke-linejoin="round" stroke-linecap="butt" d="m240.50394 233.59317l62.992126 0l0 10.960632l-62.992126 0z" fill-rule="evenodd"/><path fill="#38761d" d="m240.50394 222.63255l62.992126 0l0 10.960617l-62.992126 0z" fill-rule="evenodd"/><path stroke="#000000" stroke-width="2.0" stroke-linejoin="round" stroke-linecap="butt" d="m240.50394 222.63255l62.992126 0l0 10.960617l-62.992126 0z" fill-rule="evenodd"/><path fill="#38761d" d="m240.50394 211.67192l62.992126 0l0 10.960632l-62.992126 0z" fill-rule="evenodd"/><path stroke="#000000" stroke-width="2.0" stroke-linejoin="round" stroke-linecap="butt" d="m240.50394 211.67192l62.992126 0l0 10.960632l-62.992126 0z" fill-rule="evenodd"/><path fill="#38761d" d="m240.50394 200.71129l62.992126 0l0 10.960632l-62.992126 0z" fill-rule="evenodd"/><path stroke="#000000" stroke-width="2.0" stroke-linejoin="round" stroke-linecap="butt" d="m240.50394 200.71129l62.992126 0l0 10.960632l-62.992126 0z" fill-rule="evenodd"/><path fill="#38761d" d="m240.50394 189.75066l62.992126 0l0 10.960632l-62.992126 0z" fill-rule="evenodd"/><path stroke="#000000" stroke-width="2.0" stroke-linejoin="round" stroke-linecap="butt" d="m240.50394 189.75066l62.992126 0l0 10.960632l-62.992126 0z" fill-rule="evenodd"/><path fill="#38761d" d="m240.50394 178.79002l62.992126 0l0 10.960632l-62.992126 0z" fill-rule="evenodd"/><path stroke="#000000" stroke-width="2.0" stroke-linejoin="round" stroke-linecap="butt" d="m240.50394 178.79002l62.992126 0l0 10.960632l-62.992126 0z" fill-rule="evenodd"/><path fill="#38761d" d="m240.50394 167.82939l62.992126 0l0 10.960632l-62.992126 0z" fill-rule="evenodd"/><path stroke="#000000" stroke-width="2.0" stroke-linejoin="round" stroke-linecap="butt" d="m240.50394 167.82939l62.992126 0l0 10.960632l-62.992126 0z" fill-rule="evenodd"/><path fill="#38761d" d="m240.50394 156.86876l62.992126 0l0 10.960632l-62.992126 0z" fill-rule="evenodd"/><path stroke="#000000" stroke-width="2.0" stroke-linejoin="round" stroke-linecap="butt" d="m240.50394 156.86876l62.992126 0l0 10.960632l-62.992126 0z" fill-rule="evenodd"/><path fill="#38761d" d="m240.50394 145.90814l62.992126 0l0 10.960617l-62.992126 0z" fill-rule="evenodd"/><path stroke="#000000" stroke-width="2.0" stroke-linejoin="round" stroke-linecap="butt" d="m240.50394 145.90814l62.992126 0l0 10.960617l-62.992126 0z" fill-rule="evenodd"/><path fill="#38761d" d="m240.50394 134.94751l62.992126 0l0 10.960632l-62.992126 0z" fill-rule="evenodd"/><path stroke="#000000" stroke-width="2.0" stroke-linejoin="round" stroke-linecap="butt" d="m240.50394 134.94751l62.992126 0l0 10.960632l-62.992126 0z" fill-rule="evenodd"/><path fill="#38761d" d="m240.50394 123.98688l62.992126 0l0 10.960632l-62.992126 0z" fill-rule="evenodd"/><path stroke="#000000" stroke-width="2.0" stroke-linejoin="round" stroke-linecap="butt" d="m240.50394 123.98688l62.992126 0l0 10.960632l-62.992126 0z" fill-rule="evenodd"/><path fill="#38761d" d="m240.50394 113.026245l62.992126 0l0 10.960632l-62.992126 0z" fill-rule="evenodd"/><path stroke="#000000" stroke-width="2.0" stroke-linejoin="round" stroke-linecap="butt" d="m240.50394 113.026245l62.992126 0l0 10.960632l-62.992126 0z" fill-rule="evenodd"/><path fill="#38761d" d="m240.50394 102.06562l62.992126 0l0 10.960625l-62.992126 0z" fill-rule="evenodd"/><path stroke="#000000" stroke-width="2.0" stroke-linejoin="round" stroke-linecap="butt" d="m240.50394 102.06562l62.992126 0l0 10.960625l-62.992126 0z" fill-rule="evenodd"/><path fill="#38761d" d="m240.50394 91.10499l62.992126 0l0 10.960632l-62.992126 0z" fill-rule="evenodd"/><path stroke="#000000" stroke-width="2.0" stroke-linejoin="round" stroke-linecap="butt" d="m240.50394 91.10499l62.992126 0l0 10.960632l-62.992126 0z" fill-rule="evenodd"/><path fill="#38761d" d="m240.50394 80.144356l62.992126 0l0 10.960632l-62.992126 0z" fill-rule="evenodd"/><path stroke="#000000" stroke-width="2.0" stroke-linejoin="round" stroke-linecap="butt" d="m240.50394 80.144356l62.992126 0l0 10.960632l-62.992126 0z" fill-rule="evenodd"/><path fill="#38761d" d="m240.50394 69.18372l62.992126 0l0 10.960632l-62.992126 0z" fill-rule="evenodd"/><path stroke="#000000" stroke-width="2.0" stroke-linejoin="round" stroke-linecap="butt" d="m240.50394 69.18372l62.992126 0l0 10.960632l-62.992126 0z" fill-rule="evenodd"/><path fill="#38761d" d="m240.50394 58.2231l62.992126 0l0 10.960625l-62.992126 0z" fill-rule="evenodd"/><path stroke="#000000" stroke-width="2.0" stroke-linejoin="round" stroke-linecap="butt" d="m240.50394 58.2231l62.992126 0l0 10.960625l-62.992126 0z" fill-rule="evenodd"/><path fill="#38761d" d="m240.50394 47.262466l62.992126 0l0 10.960632l-62.992126 0z" fill-rule="evenodd"/><path stroke="#000000" stroke-width="2.0" stroke-linejoin="round" stroke-linecap="butt" d="m240.50394 47.262466l62.992126 0l0 10.960632l-62.992126 0z" fill-rule="evenodd"/></g></svg>